<svg width="1068" height="198" viewBox="0 0 1068 198" fill="none" xmlns="http://www.w3.org/2000/svg">
<path d="M133.754 17.7797V-2.23091e-06H33.4396V29.2158H0V197.629H133.754V164.65H166.832V17.7797H133.754ZM116.86 180.734H16.8928V46.1106H33.4396V164.65H116.86V180.734ZM116.86 147.753H50.3364V16.8927H116.86V30.1088H67.2955V77.5067H116.86V89.8842L67.2955 90.6123V137.867L116.86 137.964V147.753ZM149.935 147.753H133.754V121.103L84.1903 121.003V107.262L133.754 106.528V60.612H84.1903V47.0057H133.754V34.6725H149.935V147.753Z" fill="url(#paint0_linear_1_21)"/>
<path d="M241 140.34H278.443V125.604H258.771V105.97H277.156V92.0418H258.771V72.7343H278.443V58.3064H241V140.34ZM316.444 140.34H349.065C359.535 140.34 364.78 134.768 364.78 123.626V75.0204C364.78 63.8777 359.535 58.3064 349.065 58.3064H316.444V140.34ZM344.608 128.14H334.195V70.3712H344.608C345.914 70.3712 347.028 71.5623 347.028 72.8495V125.604C347.028 126.911 345.914 128.14 344.608 128.14ZM405.566 124.855C405.566 135.998 410.83 141.569 421.281 141.569H437.015C447.466 141.569 452.73 135.998 452.73 124.855V58.3064H434.96V126.411C434.96 127.718 433.922 128.947 432.616 128.947H425.738C424.451 128.947 423.337 127.718 423.337 126.411V58.3064H405.566V124.855ZM492.518 73.7909V140.34H510.288V72.2347C510.288 70.9284 511.402 69.6988 512.69 69.6988H519.567C520.874 69.6988 521.93 70.9284 521.93 72.2347V140.34H539.701V72.2347C539.701 70.9284 540.815 69.6988 542.102 69.6988H548.98C550.287 69.6988 551.401 70.9284 551.401 72.2347V140.34H569.095V73.7909C569.095 62.5713 563.831 57 553.38 57H544.024C537.645 57.0768 533.246 59.1133 530.845 63.1285C528.232 59.0556 523.852 57 517.646 57H508.233C497.781 57.0768 492.518 62.6482 492.518 73.7909ZM608.997 73.7909V140.34H626.768V112.848H639.582V140.34H657.352V73.7909C657.352 62.5713 652.089 57 641.637 57H624.731C614.261 57.0768 608.997 62.6482 608.997 73.7909ZM626.768 99.1117V71.62C626.768 70.3136 627.882 69.0841 629.188 69.0841H637.18C638.468 69.0841 639.582 70.3136 639.582 71.62V99.1117H626.768ZM698.254 124.855C698.254 135.998 703.518 141.569 713.969 141.569H728.954C739.424 141.569 744.688 135.998 744.688 124.855V107.219C744.688 96.2492 739.424 90.6778 728.954 90.5049H717.561C716.14 90.5049 715.16 89.2562 715.16 87.969V73.4067C715.16 71.985 716.274 70.8707 717.561 70.8707H724.497C725.918 70.8707 726.917 72.1195 726.917 73.4067V79.8425H743.824V73.7909C743.824 62.5713 738.56 57 728.089 57H713.969C703.518 57.0768 698.254 62.6482 698.254 73.7909V90.1207C698.254 101.283 703.518 106.854 713.969 106.854H725.438C726.725 106.854 727.84 108.083 727.84 109.39V125.489C727.84 126.911 726.725 128.025 725.438 128.025H717.561C716.14 128.025 715.16 126.776 715.16 125.489V116.383H698.254V124.855ZM779.384 73.4067H792.698V140.34H810.411V73.4067H823.724V58.3064H779.384V73.4067ZM859.592 140.34H897.055V125.604H877.363V105.97H895.748V92.0418H877.363V72.7343H897.055V58.3064H859.592V140.34ZM935.036 140.34H952.807V106.719H961.279C962.893 106.719 963.7 107.584 963.7 109.255V140.34H981.47V107.891C981.47 102.512 979.357 99.0348 975.15 97.4979C979.914 95.6344 982.335 91.3118 982.335 84.5493V75.0204C982.335 63.8777 977.071 58.3064 966.62 58.3064H935.036V140.34ZM962.22 94.3472H952.807V70.3712H962.22C963.508 70.3712 964.622 71.5623 964.622 72.8495V91.7921C964.622 93.0985 963.508 94.3472 962.22 94.3472ZM1021.49 124.855C1021.49 135.998 1026.75 141.569 1037.22 141.569H1052.21C1062.68 141.569 1067.92 135.998 1067.92 124.855V107.219C1067.92 96.2492 1062.68 90.6778 1052.21 90.5049H1040.81C1039.39 90.5049 1038.39 89.2562 1038.39 87.969V73.4067C1038.39 71.985 1039.51 70.8707 1040.81 70.8707H1047.75C1049.17 70.8707 1050.17 72.1195 1050.17 73.4067V79.8425H1067.06V73.7909C1067.06 62.5713 1061.79 57 1051.34 57H1037.22C1026.75 57.0768 1021.49 62.6482 1021.49 73.7909V90.1207C1021.49 101.283 1026.75 106.854 1037.22 106.854H1048.67C1049.98 106.854 1051.09 108.083 1051.09 109.39V125.489C1051.09 126.911 1049.98 128.025 1048.67 128.025H1040.81C1039.39 128.025 1038.39 126.776 1038.39 125.489V116.383H1021.49V124.855Z" fill="#EE2B2B"/>
<defs>
<linearGradient id="paint0_linear_1_21" x1="261.404" y1="75.767" x2="52.8867" y2="284.285" gradientUnits="userSpaceOnUse">
<stop stop-color="#E3299E"/>
<stop offset="0.680267" stop-color="#EE2B2B"/>
<stop offset="1" stop-color="#EE2B2B"/>
</linearGradient>
</defs>
</svg>
