<svg width="827" height="587" viewBox="0 0 827 587" fill="none" xmlns="http://www.w3.org/2000/svg">
<path d="M501.288 32.122V0.938341H325.347V52.1797H266.698V347.557H501.288V289.715H559.302V32.122H501.288ZM471.656 317.925H296.326V81.8112H325.347V289.715H471.656V317.925ZM471.656 260.08H354.982V30.5663H471.656V53.7459H384.727V136.877H471.656V158.585L384.727 159.862V242.742L471.656 242.912V260.08ZM529.667 260.08H501.288V213.34L414.358 213.164V189.063L501.288 187.776V107.245H414.358V83.381H501.288V61.7501H529.667V260.08Z" fill="url(#paint0_linear_1_21)"/>
<path d="M0.0391235 490.323H37.4824V475.588H17.8098V455.954H36.1952V442.025H17.8098V422.718H37.4824V408.29H0.0391235V490.323ZM75.4828 490.323H108.104C118.574 490.323 123.819 484.752 123.819 473.609V425.004C123.819 413.861 118.574 408.29 108.104 408.29H75.4828V490.323ZM103.647 478.124H93.2343V420.355H103.647C104.953 420.355 106.068 421.546 106.068 422.833V475.588C106.068 476.894 104.953 478.124 103.647 478.124ZM164.605 474.839C164.605 485.981 169.869 491.553 180.32 491.553H196.054C206.506 491.553 211.769 485.981 211.769 474.839V408.29H193.999V476.395C193.999 477.701 192.961 478.931 191.655 478.931H184.777C183.49 478.931 182.376 477.701 182.376 476.395V408.29H164.605V474.839ZM251.557 423.774V490.323H269.327V422.218C269.327 420.912 270.442 419.682 271.729 419.682H278.606C279.913 419.682 280.969 420.912 280.969 422.218V490.323H298.74V422.218C298.74 420.912 299.854 419.682 301.142 419.682H308.019C309.326 419.682 310.44 420.912 310.44 422.218V490.323H328.134V423.774C328.134 412.555 322.87 406.983 312.419 406.983H303.063C296.685 407.06 292.285 409.097 289.884 413.112C287.271 409.039 282.891 406.983 276.685 406.983H267.272C256.821 407.06 251.557 412.632 251.557 423.774ZM368.036 423.774V490.323H385.807V462.831H398.621V490.323H416.392V423.774C416.392 412.555 411.128 406.983 400.677 406.983H383.77C373.3 407.06 368.036 412.632 368.036 423.774ZM385.807 449.095V421.603C385.807 420.297 386.921 419.068 388.228 419.068H396.219C397.507 419.068 398.621 420.297 398.621 421.603V449.095H385.807ZM457.293 474.839C457.293 485.981 462.557 491.553 473.008 491.553H487.993C498.463 491.553 503.727 485.981 503.727 474.839V457.202C503.727 446.233 498.463 440.661 487.993 440.488H476.601C475.179 440.488 474.199 439.24 474.199 437.952V423.39C474.199 421.968 475.313 420.854 476.601 420.854H483.536C484.958 420.854 485.957 422.103 485.957 423.39V429.826H502.863V423.774C502.863 412.555 497.599 406.983 487.128 406.983H473.008C462.557 407.06 457.293 412.632 457.293 423.774V440.104C457.293 451.266 462.557 456.837 473.008 456.837H484.477C485.764 456.837 486.879 458.067 486.879 459.373V475.473C486.879 476.894 485.764 478.009 484.477 478.009H476.601C475.179 478.009 474.199 476.76 474.199 475.473V466.366H457.293V474.839ZM538.423 423.39H551.737V490.323H569.45V423.39H582.763V408.29H538.423V423.39ZM618.631 490.323H656.094V475.588H636.402V455.954H654.788V442.025H636.402V422.718H656.094V408.29H618.631V490.323ZM694.075 490.323H711.846V456.703H720.318C721.932 456.703 722.739 457.567 722.739 459.239V490.323H740.509V457.875C740.509 452.496 738.396 449.018 734.189 447.481C738.953 445.618 741.374 441.295 741.374 434.533V425.004C741.374 413.861 736.11 408.29 725.659 408.29H694.075V490.323ZM721.26 444.331H711.846V420.355H721.26C722.547 420.355 723.661 421.546 723.661 422.833V441.776C723.661 443.082 722.547 444.331 721.26 444.331ZM780.527 474.839C780.527 485.981 785.791 491.553 796.261 491.553H811.246C821.717 491.553 826.961 485.981 826.961 474.839V457.202C826.961 446.233 821.717 440.661 811.246 440.488H799.854C798.432 440.488 797.433 439.24 797.433 437.952V423.39C797.433 421.968 798.547 420.854 799.854 420.854H806.789C808.211 420.854 809.21 422.103 809.21 423.39V429.826H826.097V423.774C826.097 412.555 820.833 406.983 810.382 406.983H796.261C785.791 407.06 780.527 412.632 780.527 423.774V440.104C780.527 451.266 785.791 456.837 796.261 456.837H807.711C809.018 456.837 810.132 458.067 810.132 459.373V475.473C810.132 476.894 809.018 478.009 807.711 478.009H799.854C798.432 478.009 797.433 476.76 797.433 475.473V466.366H780.527V474.839Z" fill="#EE2B2B"/>
<path d="M158.247 585.281H190.023V572.775H173.328V556.118H188.928V544.303H173.328V527.916H190.023V515.678H158.247V585.281ZM222.26 572.141C222.26 581.612 226.717 586.338 235.593 586.338H248.311C257.187 586.338 261.663 581.612 261.663 572.141V557.175C261.663 547.876 257.187 543.15 248.311 542.997H238.647C237.437 542.997 236.592 541.94 236.592 540.845V528.492C236.592 527.282 237.533 526.34 238.647 526.34H244.526C245.737 526.34 246.582 527.397 246.582 528.492V533.967H260.914V528.819C260.914 519.309 256.457 514.583 247.581 514.583H235.593C226.717 514.621 222.26 519.347 222.26 528.819V542.67C222.26 552.141 226.717 556.867 235.593 556.867H245.314C246.428 556.867 247.37 557.905 247.37 559.019V572.679C247.37 573.889 246.428 574.83 245.314 574.83H238.647C237.437 574.83 236.592 573.774 236.592 572.679V564.955H222.26V572.141ZM291.095 528.492H302.391V585.281H317.415V528.492H328.711V515.678H291.095V528.492ZM362.408 584.071C363.926 585.589 365.77 586.338 367.922 586.338C370.074 586.338 371.86 585.589 373.397 584.071C374.915 582.553 375.645 580.767 375.645 578.615C375.645 576.463 374.915 574.677 373.397 573.14C371.86 571.622 370.074 570.892 367.922 570.892C365.77 570.892 363.926 571.622 362.408 573.14C360.89 574.677 360.16 576.463 360.16 578.615C360.16 580.767 360.89 582.553 362.408 584.071ZM410.245 528.819V533.967H424.577V528.492C424.577 527.282 425.537 526.34 426.632 526.34H432.991C434.086 526.34 435.028 527.397 435.028 528.492V543.88C435.028 544.995 434.086 545.994 432.991 545.994H424.365C415.49 546.032 411.033 550.777 411.033 560.229V585.281H448.015V572.89H424.788V561.382C424.788 560.268 425.729 559.23 426.844 559.23H435.566C444.441 559.23 448.899 554.504 448.899 545.033V528.819C448.899 519.309 444.441 514.583 435.566 514.583H423.578C414.702 514.621 410.245 519.347 410.245 528.819ZM483.499 528.819V572.141C483.499 581.612 487.956 586.338 496.831 586.338H509.665C518.54 586.338 522.997 581.612 522.997 572.141V528.819C522.997 519.347 518.54 514.621 509.665 514.583H496.831C487.956 514.621 483.499 519.347 483.499 528.819ZM498.157 573.889V526.974C498.157 525.86 499.098 524.823 500.193 524.823H506.341C507.455 524.823 508.339 525.86 508.339 526.974V573.889C508.339 574.984 507.455 576.041 506.341 576.041H500.193C499.002 576.041 498.157 574.984 498.157 573.889ZM555.964 528.819V533.967H570.315V528.492C570.315 527.282 571.257 526.34 572.352 526.34H578.711C579.806 526.34 580.767 527.397 580.767 528.492V543.88C580.767 544.995 579.806 545.994 578.711 545.994H570.104C561.209 546.032 556.752 550.777 556.752 560.229V585.281H593.734V572.89H570.508V561.382C570.508 560.268 571.468 559.23 572.563 559.23H581.285C590.161 559.23 594.637 554.504 594.637 545.033V528.819C594.637 519.309 590.161 514.583 581.285 514.583H569.316C560.422 514.621 555.964 519.347 555.964 528.819ZM628.795 572.141C628.795 581.612 633.272 586.338 642.147 586.338H654.865C663.741 586.338 668.198 581.612 668.198 572.141V561.843C668.198 556.118 666.527 552.026 663.165 549.663C666.104 547.511 667.564 543.669 667.526 538.059V528.819C667.564 519.309 663.107 514.583 654.231 514.583H642.781C633.906 514.621 629.429 519.347 629.429 528.819V535.37H642.877V528.492C642.877 527.282 643.819 526.34 644.933 526.34H652.176C653.29 526.34 654.231 527.397 654.231 528.492V542.055C654.231 543.15 653.29 544.207 652.176 544.207H641.725V555.811H652.81C653.905 555.811 654.865 556.867 654.865 557.962V572.775C654.865 573.985 653.905 574.926 652.81 574.926H644.299C643.204 574.926 642.243 573.889 642.243 572.775V566.473H628.795V572.141Z" fill="#EE2B2B"/>
<defs>
<linearGradient id="paint0_linear_1_21" x1="725.172" y1="133.825" x2="359.455" y2="499.542" gradientUnits="userSpaceOnUse">
<stop stop-color="#E3299E"/>
<stop offset="0.680267" stop-color="#EE2B2B"/>
<stop offset="1" stop-color="#EE2B2B"/>
</linearGradient>
</defs>
</svg>
