<svg width="1050" height="198" viewBox="0 0 1050 198" fill="none" xmlns="http://www.w3.org/2000/svg">
<path d="M133.754 17.7797V-2.23091e-06H33.4396V29.2158H0V197.629H133.754V164.65H166.832V17.7797H133.754ZM116.86 180.734H16.8928V46.1106H33.4396V164.65H116.86V180.734ZM116.86 147.753H50.3364V16.8927H116.86V30.1088H67.2955V77.5067H116.86V89.8842L67.2955 90.6123V137.867L116.86 137.964V147.753ZM149.935 147.753H133.754V121.103L84.1903 121.003V107.262L133.754 106.528V60.612H84.1903V47.0057H133.754V34.6725H149.935V147.753Z" fill="url(#paint0_linear_1_21)"/>
<path d="M223.039 106.34H260.482V91.6044H240.81V71.9702H259.195V58.0418H240.81V38.7343H260.482V24.3064H223.039V106.34ZM298.483 106.34H331.104C341.574 106.34 346.819 100.768 346.819 89.6256V41.0204C346.819 29.8777 341.574 24.3064 331.104 24.3064H298.483V106.34ZM326.647 94.1403H316.234V36.3712H326.647C327.953 36.3712 329.068 37.5623 329.068 38.8495V91.6044C329.068 92.9108 327.953 94.1403 326.647 94.1403ZM387.605 90.8551C387.605 101.998 392.869 107.569 403.32 107.569H419.054C429.505 107.569 434.769 101.998 434.769 90.8551V24.3064H416.999V92.4113C416.999 93.7177 415.961 94.9472 414.655 94.9472H407.777C406.49 94.9472 405.376 93.7177 405.376 92.4113V24.3064H387.605V90.8551ZM474.557 39.7909V106.34H492.327V38.2347C492.327 36.9284 493.442 35.6988 494.729 35.6988H501.606C502.913 35.6988 503.969 36.9284 503.969 38.2347V106.34H521.74V38.2347C521.74 36.9284 522.854 35.6988 524.142 35.6988H531.019C532.326 35.6988 533.44 36.9284 533.44 38.2347V106.34H551.134V39.7909C551.134 28.5713 545.87 23 535.419 23H526.063C519.684 23.0768 515.285 25.1133 512.884 29.1285C510.271 25.0556 505.891 23 499.685 23H490.272C479.821 23.0768 474.557 28.6482 474.557 39.7909ZM591.036 39.7909V106.34H608.807V78.8479H621.621V106.34H639.392V39.7909C639.392 28.5713 634.128 23 623.677 23H606.77C596.3 23.0768 591.036 28.6482 591.036 39.7909ZM608.807 65.1117V37.62C608.807 36.3136 609.921 35.0841 611.227 35.0841H619.219C620.507 35.0841 621.621 36.3136 621.621 37.62V65.1117H608.807ZM680.293 90.8551C680.293 101.998 685.557 107.569 696.008 107.569H710.993C721.463 107.569 726.727 101.998 726.727 90.8551V73.219C726.727 62.2492 721.463 56.6778 710.993 56.5049H699.601C698.179 56.5049 697.199 55.2562 697.199 53.969V39.4067C697.199 37.985 698.313 36.8707 699.601 36.8707H706.536C707.958 36.8707 708.957 38.1195 708.957 39.4067V45.8425H725.863V39.7909C725.863 28.5713 720.599 23 710.128 23H696.008C685.557 23.0768 680.293 28.6482 680.293 39.7909V56.1207C680.293 67.2826 685.557 72.8539 696.008 72.8539H707.477C708.764 72.8539 709.879 74.0835 709.879 75.3899V91.4891C709.879 92.9108 708.764 94.0251 707.477 94.0251H699.601C698.179 94.0251 697.199 92.7763 697.199 91.4891V82.3829H680.293V90.8551ZM761.423 39.4067H774.737V106.34H792.45V39.4067H805.763V24.3064H761.423V39.4067ZM841.631 106.34H879.094V91.6044H859.402V71.9702H877.788V58.0418H859.402V38.7343H879.094V24.3064H841.631V106.34ZM917.075 106.34H934.846V72.7195H943.318C944.932 72.7195 945.739 73.584 945.739 75.2554V106.34H963.509V73.8914C963.509 68.5121 961.396 65.0348 957.189 63.4979C961.953 61.6344 964.374 57.3118 964.374 50.5493V41.0204C964.374 29.8777 959.11 24.3064 948.659 24.3064H917.075V106.34ZM944.259 60.3472H934.846V36.3712H944.259C945.547 36.3712 946.661 37.5623 946.661 38.8495V57.7921C946.661 59.0985 945.547 60.3472 944.259 60.3472ZM1003.53 90.8551C1003.53 101.998 1008.79 107.569 1019.26 107.569H1034.25C1044.72 107.569 1049.96 101.998 1049.96 90.8551V73.219C1049.96 62.2492 1044.72 56.6778 1034.25 56.5049H1022.85C1021.43 56.5049 1020.43 55.2562 1020.43 53.969V39.4067C1020.43 37.985 1021.55 36.8707 1022.85 36.8707H1029.79C1031.21 36.8707 1032.21 38.1195 1032.21 39.4067V45.8425H1049.1V39.7909C1049.1 28.5713 1043.83 23 1033.38 23H1019.26C1008.79 23.0768 1003.53 28.6482 1003.53 39.7909V56.1207C1003.53 67.2826 1008.79 72.8539 1019.26 72.8539H1030.71C1032.02 72.8539 1033.13 74.0835 1033.13 75.3899V91.4891C1033.13 92.9108 1032.02 94.0251 1030.71 94.0251H1022.85C1021.43 94.0251 1020.43 92.7763 1020.43 91.4891V82.3829H1003.53V90.8551Z" fill="#EE2B2B"/>
<path d="M223 175.293H244.249V166.93H233.085V155.792H243.517V147.891H233.085V136.932H244.249V128.749H223V175.293ZM265.806 166.506C265.806 172.84 268.787 176 274.722 176H283.227C289.162 176 292.155 172.84 292.155 166.506V156.498C292.155 150.28 289.162 147.12 283.227 147.017H276.765C275.955 147.017 275.39 146.311 275.39 145.578V137.318C275.39 136.508 276.019 135.879 276.765 135.879H280.696C281.505 135.879 282.07 136.585 282.07 137.318V140.979H291.654V137.536C291.654 131.177 288.674 128.017 282.738 128.017H274.722C268.787 128.042 265.806 131.203 265.806 137.536V146.799C265.806 153.132 268.787 156.293 274.722 156.293H281.222C281.968 156.293 282.597 156.986 282.597 157.732V166.866C282.597 167.675 281.968 168.305 281.222 168.305H276.765C275.955 168.305 275.39 167.598 275.39 166.866V161.701H265.806V166.506ZM311.837 137.318H319.391V175.293H329.437V137.318H336.991V128.749H311.837V137.318ZM359.525 174.484C360.54 175.499 361.773 176 363.212 176C364.651 176 365.846 175.499 366.873 174.484C367.888 173.469 368.376 172.274 368.376 170.836C368.376 169.397 367.888 168.202 366.873 167.174C365.846 166.159 364.651 165.671 363.212 165.671C361.773 165.671 360.54 166.159 359.525 167.174C358.51 168.202 358.022 169.397 358.022 170.836C358.022 172.274 358.51 173.469 359.525 174.484ZM391.514 137.536V140.979H401.098V137.318C401.098 136.508 401.74 135.879 402.472 135.879H406.725C407.457 135.879 408.086 136.585 408.086 137.318V147.608C408.086 148.353 407.457 149.021 406.725 149.021H400.956C395.021 149.047 392.041 152.22 392.041 158.541V175.293H416.771V167.007H401.239V159.312C401.239 158.567 401.868 157.873 402.614 157.873H408.446C414.381 157.873 417.362 154.713 417.362 148.379V137.536C417.362 131.177 414.381 128.017 408.446 128.017H400.43C394.494 128.042 391.514 131.203 391.514 137.536ZM440.499 137.536V166.506C440.499 172.84 443.48 176 449.415 176H457.997C463.932 176 466.913 172.84 466.913 166.506V137.536C466.913 131.203 463.932 128.042 457.997 128.017H449.415C443.48 128.042 440.499 131.203 440.499 137.536ZM450.302 167.675V136.303C450.302 135.558 450.931 134.864 451.663 134.864H455.774C456.519 134.864 457.11 135.558 457.11 136.303V167.675C457.11 168.407 456.519 169.114 455.774 169.114H451.663C450.867 169.114 450.302 168.407 450.302 167.675ZM488.958 137.536V140.979H498.555V137.318C498.555 136.508 499.184 135.879 499.917 135.879H504.169C504.901 135.879 505.544 136.585 505.544 137.318V147.608C505.544 148.353 504.901 149.021 504.169 149.021H498.413C492.465 149.047 489.485 152.22 489.485 158.541V175.293H514.215V167.007H498.683V159.312C498.683 158.567 499.326 157.873 500.058 157.873H505.89C511.826 157.873 514.819 154.713 514.819 148.379V137.536C514.819 131.177 511.826 128.017 505.89 128.017H497.887C491.939 128.042 488.958 131.203 488.958 137.536ZM537.661 166.506C537.661 172.84 540.654 176 546.59 176H555.094C561.03 176 564.01 172.84 564.01 166.506V159.62C564.01 155.792 562.892 153.055 560.644 151.475C562.61 150.036 563.586 147.467 563.56 143.716V137.536C563.586 131.177 560.606 128.017 554.67 128.017H547.014C541.078 128.042 538.085 131.203 538.085 137.536V141.917H547.078V137.318C547.078 136.508 547.707 135.879 548.452 135.879H553.296C554.041 135.879 554.67 136.585 554.67 137.318V146.388C554.67 147.12 554.041 147.827 553.296 147.827H546.307V155.586H553.72C554.452 155.586 555.094 156.293 555.094 157.025V166.93C555.094 167.739 554.452 168.369 553.72 168.369H548.029C547.296 168.369 546.654 167.675 546.654 166.93V162.716H537.661V166.506Z" fill="#EE2B2B"/>
<defs>
<linearGradient id="paint0_linear_1_21" x1="261.404" y1="75.767" x2="52.8867" y2="284.285" gradientUnits="userSpaceOnUse">
<stop stop-color="#E3299E"/>
<stop offset="0.680267" stop-color="#EE2B2B"/>
<stop offset="1" stop-color="#EE2B2B"/>
</linearGradient>
</defs>
</svg>
